<svg id="Layer_1" data-name="Layer 1" xmlns="http://www.w3.org/2000/svg" viewBox="0 0 841.89 595.28"><title>actxis-logo-solid-white-transparent</title><polygon points="392.99 254.22 279.15 45.2 392.42 254.31 392.99 254.22" fill="#fff"/><polygon points="219.53 45.2 50.65 388.89 233.25 292.75 290.44 166.37 345.8 261.75 383.6 255.72 270.13 45.2 219.53 45.2" fill="#fff"/><polygon points="416.81 406.93 485.4 538.46 536 538.46 447.77 374.78 416.81 406.93" fill="#fff"/><polygon points="791.24 45.2 659.41 45.2 496.63 212.54 410.39 45.2 373.91 45.2 279.15 45.2 392.99 254.22 409.22 284.01 408.75 284.46 402.46 290.71 152.81 538.46 290.17 538.46 416.81 406.93 447.77 374.78 454.11 368.2 546.33 538.46 625.7 538.46 677.64 538.46 544.22 286.19 791.24 45.2" fill="#fff"/><rect x="83.06" y="404.71" width="358.5" height="9" transform="translate(-211.81 302.14) rotate(-44.61)" fill="#fff"/><rect x="99.83" y="396.36" width="305.57" height="5" transform="translate(-207.35 292.4) rotate(-44.62)" fill="#fff"/><polygon points="502.97 178.41 509.39 184.71 646.27 45.34 646.12 45.2 633.79 45.2 502.97 178.41" fill="#fff"/><rect x="487.02" y="100.58" width="155.73" height="5" transform="translate(92.83 430.01) rotate(-45.05)" fill="#fff"/><rect x="306.01" y="186.37" width="9" height="81.02" transform="translate(-72.36 190.77) rotate(-30.77)" fill="#fff"/><rect x="298.32" y="200.91" width="6" height="63.97" transform="translate(-76.45 184.72) rotate(-30.43)" fill="#fff"/><polygon points="419.07 428.09 411.12 432.31 467.33 538.3 477.52 538.3 419.07 428.09" fill="#fff"/><polygon points="410.9 443.67 405.6 446.48 454.3 538.3 461.09 538.3 410.9 443.67" fill="#fff"/></svg>