<?xml version="1.0" standalone="no"?>
<!DOCTYPE svg PUBLIC "-//W3C//DTD SVG 20010904//EN"
 "http://www.w3.org/TR/2001/REC-SVG-20010904/DTD/svg10.dtd">
<svg version="1.0" xmlns="http://www.w3.org/2000/svg"
 width="1342.000000pt" height="1342.000000pt" viewBox="0 0 1342.000000 1342.000000"
 preserveAspectRatio="xMidYMid meet">
<metadata>
Created by potrace 1.11, written by Peter Selinger 2001-2013
</metadata>
<g transform="translate(0.000000,1342.000000) scale(0.100000,-0.100000)"
fill="#000000" stroke="none">
<path d="M10664 11141 c-18 -17 -683 -694 -989 -1006 -76 -77 -320 -326 -544
-553 -223 -228 -466 -475 -539 -550 -74 -76 -188 -192 -255 -260 l-121 -122
34 -31 34 -31 215 220 c119 121 401 408 627 639 227 230 481 489 565 575 253
257 940 956 997 1013 28 29 52 57 52 62 0 4 -13 20 -29 35 -27 26 -29 26 -47
9z"/>
<path d="M3091 11066 c-8 -10 -76 -146 -446 -901 -67 -137 -196 -398 -285
-580 -89 -181 -220 -447 -290 -590 -119 -244 -243 -495 -550 -1120 -70 -143
-201 -408 -290 -590 -89 -181 -220 -447 -290 -590 -70 -143 -196 -399 -280
-570 -84 -170 -212 -431 -285 -580 -73 -148 -170 -346 -216 -440 -46 -93 -90
-183 -97 -198 l-12 -28 73 39 c76 42 181 97 362 192 140 73 269 141 420 221
164 87 253 134 387 203 62 32 136 71 163 86 52 28 156 83 360 190 66 35 152
80 190 100 39 21 124 66 190 100 66 35 194 102 285 150 91 48 219 115 285 150
66 35 147 77 180 95 33 18 128 67 210 110 83 43 161 86 174 95 15 10 51 77 97
181 41 90 79 173 84 184 18 38 82 180 100 220 10 22 29 65 43 95 14 30 89 197
167 370 78 173 152 338 165 365 407 901 387 857 390 853 1 -2 93 -160 205
-353 111 -192 250 -431 308 -530 58 -99 114 -196 125 -215 10 -19 94 -163 185
-320 91 -157 166 -286 166 -286 1 -1 24 2 51 6 28 5 68 11 90 15 22 3 65 10
95 15 30 5 73 12 95 15 22 3 51 8 65 10 14 3 40 7 58 10 17 3 44 7 60 10 15 2
41 6 57 9 123 19 234 37 256 40 22 4 29 -2 52 -47 27 -54 91 -172 144 -267 17
-30 49 -90 72 -133 l42 -79 -288 -285 c-158 -157 -583 -578 -944 -936 -1395
-1385 -2639 -2620 -2989 -2966 l-365 -361 1243 0 1243 0 122 126 c67 70 147
152 177 184 30 32 148 154 261 271 113 118 230 239 260 271 30 31 142 147 249
259 107 111 226 234 263 273 38 39 153 159 257 266 208 215 260 269 488 508
86 89 159 162 163 162 4 0 26 -37 50 -83 23 -45 54 -104 69 -132 15 -27 69
-131 120 -230 51 -99 109 -211 130 -250 21 -38 70 -133 110 -210 40 -77 96
-185 125 -240 29 -55 85 -163 125 -240 40 -77 94 -180 120 -230 26 -49 77
-146 112 -215 36 -69 103 -197 149 -285 46 -88 88 -170 94 -182 l10 -23 1733
0 c952 0 1732 3 1732 6 0 6 -120 237 -159 308 -10 17 -51 94 -91 171 -40 77
-85 163 -100 190 -15 28 -55 104 -90 170 -35 66 -75 143 -90 170 -15 28 -56
104 -90 170 -34 66 -75 143 -90 170 -33 62 -112 210 -175 330 -26 50 -74 142
-107 205 -70 133 -139 263 -178 335 -15 28 -72 136 -127 240 -133 253 -188
356 -233 440 -40 75 -103 195 -195 370 -32 61 -72 137 -90 170 -31 58 -64 120
-175 330 -29 55 -70 132 -90 170 -21 39 -62 117 -93 175 -99 190 -144 274
-175 331 l-30 57 271 264 c150 146 313 305 362 353 50 48 230 224 400 390 171
167 360 352 422 412 61 59 248 242 416 405 167 164 348 341 403 394 130 126
695 678 943 920 108 106 242 236 298 290 56 55 242 236 414 404 172 168 359
350 416 406 l103 101 -1192 1 -1193 0 -104 -106 c-57 -59 -221 -228 -366 -377
-145 -148 -307 -315 -360 -370 -54 -55 -217 -223 -364 -374 -146 -150 -306
-315 -356 -366 -49 -51 -209 -215 -355 -365 -146 -149 -305 -314 -355 -365
-49 -51 -216 -222 -370 -380 -154 -158 -283 -292 -286 -297 -4 -6 -22 21 -41
58 -48 96 -239 467 -308 599 -32 61 -104 200 -160 310 -56 110 -135 263 -175
340 -40 77 -113 219 -162 315 -206 400 -289 562 -351 680 -35 69 -118 231
-185 360 -66 129 -132 258 -147 285 l-27 50 -1717 1 c-1229 1 -1719 -2 -1725
-10z"/>
<path d="M9289 10050 c-955 -957 -989 -993 -973 -1011 17 -19 52 15 1006 970
543 545 988 994 988 999 0 5 -7 15 -15 22 -13 11 -158 -130 -1006 -980z"/>
<path d="M4360 8432 c-19 -13 -34 -26 -33 -30 3 -7 51 -89 247 -417 65 -110
127 -213 136 -230 10 -16 42 -70 72 -120 29 -49 105 -177 168 -282 63 -106
118 -193 123 -193 4 0 22 10 40 22 l33 21 -82 136 c-45 75 -188 316 -319 536
-296 497 -325 546 -339 566 -10 14 -15 13 -46 -9z"/>
<path d="M4272 8193 l-23 -18 25 -38 c14 -21 26 -40 26 -42 0 -2 34 -61 76
-132 42 -70 85 -143 95 -160 11 -18 27 -48 38 -65 18 -33 73 -126 238 -405 47
-79 86 -143 88 -143 2 0 16 5 30 12 23 10 24 13 12 32 -8 12 -83 138 -167 281
-84 143 -161 274 -171 290 -10 17 -22 36 -25 43 -4 7 -40 70 -81 140 -42 70
-83 140 -92 156 -9 15 -23 37 -31 48 -15 19 -16 19 -38 1z"/>
<path d="M5800 6499 c-179 -177 -572 -565 -874 -862 -302 -298 -629 -621 -726
-717 -98 -96 -431 -425 -740 -730 -310 -305 -727 -718 -929 -916 -201 -199
-507 -501 -680 -671 l-314 -310 29 -26 c16 -15 34 -26 41 -25 6 2 225 215 487
473 262 259 600 592 751 740 150 149 506 500 790 780 285 281 606 597 714 703
108 107 446 440 751 742 305 301 676 667 825 813 l270 266 -29 30 c-17 17 -32
31 -35 31 -3 0 -152 -145 -331 -321z"/>
<path d="M5363 6397 c-148 -146 -344 -340 -438 -432 -93 -92 -424 -418 -733
-724 -310 -306 -641 -632 -735 -724 -95 -93 -433 -427 -752 -742 -319 -315
-672 -663 -784 -773 -178 -174 -203 -203 -192 -216 8 -9 17 -16 22 -16 5 0
160 150 345 333 185 182 414 409 509 502 95 94 426 420 735 725 310 305 636
627 725 715 89 88 427 421 750 740 323 319 645 636 716 705 71 69 129 131 129
137 0 6 -7 16 -15 23 -12 10 -58 -30 -282 -253z"/>
<path d="M6608 4150 l-36 -20 52 -97 c52 -97 65 -122 87 -164 6 -12 19 -36 28
-53 10 -17 51 -94 91 -171 40 -77 85 -162 100 -190 15 -27 53 -99 85 -160 32
-60 65 -123 75 -140 10 -16 46 -84 80 -150 97 -186 161 -306 185 -350 22 -39
72 -133 170 -320 26 -49 50 -94 55 -98 4 -5 28 -7 54 -5 l46 3 -14 27 c-95
181 -162 309 -176 333 -10 17 -46 84 -80 150 -60 114 -90 171 -179 338 -21 39
-62 117 -91 172 -29 55 -65 123 -80 150 -15 28 -53 100 -85 160 -32 61 -78
148 -103 195 -54 100 -138 259 -184 348 -18 34 -35 62 -38 62 -3 -1 -21 -10
-42 -20z"/>
<path d="M6515 3838 c-11 -6 -22 -12 -24 -14 -1 -1 21 -47 49 -101 29 -54 73
-136 98 -183 25 -47 61 -116 82 -155 20 -38 68 -128 105 -200 38 -71 79 -147
92 -167 13 -21 23 -43 23 -49 0 -6 8 -23 18 -37 17 -25 52 -91 205 -382 27
-52 70 -134 96 -182 l46 -86 27 14 27 14 -41 77 c-22 43 -56 107 -76 143 -19
36 -52 97 -72 135 -20 39 -60 115 -89 170 -29 55 -78 147 -108 205 -31 58 -68
128 -83 155 -15 28 -51 95 -80 150 -53 100 -86 164 -176 330 -26 50 -56 107
-66 127 -22 45 -28 49 -53 36z"/>
</g>
</svg>
